<svg width="1024" height="1024" viewBox="0 0 1024 1024" fill="none" xmlns="http://www.w3.org/2000/svg">
<path d="M517.263 141.996C517.263 143.818 515.764 145.317 513.942 145.317C512.124 145.317 510.621 143.818 510.621 141.996C510.621 140.178 512.124 138.679 513.942 138.679C515.764 138.679 517.263 140.178 517.263 141.996Z" fill="white" style="fill:white;fill-opacity:1;"/>
<path d="M540.25 192.262C540.25 194.503 538.405 196.348 536.164 196.348C533.922 196.348 532.077 194.503 532.077 192.262C532.077 190.025 533.922 188.18 536.164 188.18C538.405 188.18 540.25 190.025 540.25 192.262Z" fill="white" style="fill:white;fill-opacity:1;"/>
<path d="M600.019 274.426C600.019 276.667 598.174 278.512 595.933 278.512C593.691 278.512 591.846 276.667 591.846 274.426C591.846 272.189 593.691 270.344 595.933 270.344C598.174 270.344 600.019 272.189 600.019 274.426Z" fill="white" style="fill:white;fill-opacity:1;"/>
<path d="M503.981 220.588C503.981 222.406 502.483 223.904 500.661 223.904C498.84 223.904 497.342 222.406 497.342 220.588C497.342 218.766 498.84 217.271 500.661 217.271C502.483 217.271 503.981 218.766 503.981 220.588Z" fill="white" style="fill:white;fill-opacity:1;"/>
<path d="M539.74 239.471C539.74 241.289 538.241 242.787 536.419 242.787C534.601 242.787 533.098 241.289 533.098 239.471C533.098 237.649 534.601 236.15 536.419 236.15C538.241 236.15 539.74 237.649 539.74 239.471Z" fill="white" style="fill:white;fill-opacity:1;"/>
<path d="M493.254 186.649C493.254 188.89 491.409 190.731 489.168 190.731C486.927 190.731 485.081 188.89 485.081 186.649C485.081 184.412 486.927 182.567 489.168 182.567C491.409 182.567 493.254 184.412 493.254 186.649Z" fill="white" style="fill:white;fill-opacity:1;"/>
<path d="M439.108 219.568C439.108 221.386 437.607 222.884 435.787 222.884C433.965 222.884 432.466 221.386 432.466 219.568C432.466 217.75 433.965 216.251 435.787 216.251C437.607 216.251 439.108 217.75 439.108 219.568Z" fill="white" style="fill:white;fill-opacity:1;"/>
<path d="M448.813 226.2C448.813 228.023 447.313 229.517 445.492 229.517C443.67 229.517 442.172 228.023 442.172 226.2C442.172 224.378 443.67 222.884 445.492 222.884C447.313 222.884 448.813 224.378 448.813 226.2Z" fill="white" style="fill:white;fill-opacity:1;"/>
<path d="M458.518 232.833C458.518 234.656 457.02 236.15 455.198 236.15C453.376 236.15 451.877 234.656 451.877 232.833C451.877 231.016 453.376 229.517 455.198 229.517C457.02 229.517 458.518 231.016 458.518 232.833Z" fill="white" style="fill:white;fill-opacity:1;"/>
<path d="M443.704 245.593C443.704 247.411 442.206 248.91 440.384 248.91C438.563 248.91 437.063 247.411 437.063 245.593C437.063 243.776 438.563 242.277 440.384 242.277C442.206 242.277 443.704 243.776 443.704 245.593Z" fill="white" style="fill:white;fill-opacity:1;"/>
<path d="M366.567 299.691C366.567 301.508 365.069 303.003 363.249 303.003C361.426 303.003 359.926 301.508 359.926 299.691C359.926 297.868 361.426 296.374 363.249 296.374C365.069 296.374 366.567 297.868 366.567 299.691Z" fill="white" style="fill:white;fill-opacity:1;"/>
<path d="M380.871 317.038C380.871 318.861 379.373 320.355 377.551 320.355C375.73 320.355 374.23 318.861 374.23 317.038C374.23 315.221 375.73 313.722 377.551 313.722C379.373 313.722 380.871 315.221 380.871 317.038Z" fill="white" style="fill:white;fill-opacity:1;"/>
<path d="M369.634 597.212C369.634 599.03 368.133 600.529 366.313 600.529C364.491 600.529 362.992 599.03 362.992 597.212C362.992 595.391 364.491 593.895 366.313 593.895C368.133 593.895 369.634 595.391 369.634 597.212Z" fill="white" style="fill:white;fill-opacity:1;"/>
<path d="M371.676 674.527C371.676 676.765 369.831 678.609 367.591 678.609C365.349 678.609 363.503 676.765 363.503 674.527C363.503 672.286 365.349 670.444 367.591 670.444C369.831 670.444 371.676 672.286 371.676 674.527Z" fill="white" style="fill:white;fill-opacity:1;"/>
<path d="M327.746 714.077C327.746 715.896 326.245 717.395 324.425 717.395C322.603 717.395 321.105 715.896 321.105 714.077C321.105 712.257 322.603 710.761 324.425 710.761C326.245 710.761 327.746 712.257 327.746 714.077Z" fill="white" style="fill:white;fill-opacity:1;"/>
<path d="M275.131 730.152C275.131 732.392 273.284 734.234 271.043 734.234C268.801 734.234 266.956 732.392 266.956 730.152C266.956 727.913 268.801 726.07 271.043 726.07C273.284 726.07 275.131 727.913 275.131 730.152Z" fill="white" style="fill:white;fill-opacity:1;"/>
<path d="M264.402 694.43C264.402 696.669 262.557 698.512 260.314 698.512C258.074 698.512 256.229 696.669 256.229 694.43C256.229 692.19 258.074 690.346 260.314 690.346C262.557 690.346 264.402 692.19 264.402 694.43Z" fill="white" style="fill:white;fill-opacity:1;"/>
<path d="M258.272 717.138C258.272 718.957 256.773 720.455 254.951 720.455C253.131 720.455 251.631 718.957 251.631 717.138C251.631 715.32 253.131 713.821 254.951 713.821C256.773 713.821 258.272 715.32 258.272 717.138Z" fill="white" style="fill:white;fill-opacity:1;"/>
<path d="M218.939 698.258C218.939 700.077 217.439 701.573 215.619 701.573C213.796 701.573 212.296 700.077 212.296 698.258C212.296 696.438 213.796 694.939 215.619 694.939C217.439 694.939 218.939 696.438 218.939 698.258Z" fill="white" style="fill:white;fill-opacity:1;"/>
<path d="M356.351 762.048C356.351 763.867 354.853 765.365 353.031 765.365C351.21 765.365 349.71 763.867 349.71 762.048C349.71 760.228 351.21 758.731 353.031 758.731C354.853 758.731 356.351 760.228 356.351 762.048Z" fill="white" style="fill:white;fill-opacity:1;"/>
<path d="M397.728 731.683C397.728 733.923 395.885 735.767 393.643 735.767C391.4 735.767 389.555 733.923 389.555 731.683C389.555 729.444 391.4 727.6 393.643 727.6C395.885 727.6 397.728 729.444 397.728 731.683Z" fill="white" style="fill:white;fill-opacity:1;"/>
<path d="M402.327 770.723C402.327 772.544 400.827 774.04 399.006 774.04C397.184 774.04 395.685 772.544 395.685 770.723C395.685 768.905 397.184 767.406 399.006 767.406C400.827 767.406 402.327 768.905 402.327 770.723Z" fill="white" style="fill:white;fill-opacity:1;"/>
<path d="M572.435 733.469C572.435 735.29 570.936 736.786 569.114 736.786C567.292 736.786 565.793 735.29 565.793 733.469C565.793 731.651 567.292 730.152 569.114 730.152C570.936 730.152 572.435 731.651 572.435 733.469Z" fill="white" style="fill:white;fill-opacity:1;"/>
<path d="M493.254 761.538C493.254 763.358 491.756 764.855 489.934 764.855C488.112 764.855 486.613 763.358 486.613 761.538C486.613 759.717 488.112 758.221 489.934 758.221C491.756 758.221 493.254 759.717 493.254 761.538Z" fill="white" style="fill:white;fill-opacity:1;"/>
<path d="M706.273 801.854C706.273 803.673 704.774 805.171 702.952 805.171C701.13 805.171 699.631 803.673 699.631 801.854C699.631 800.034 701.13 798.537 702.952 798.537C704.774 798.537 706.273 800.034 706.273 801.854Z" fill="white" style="fill:white;fill-opacity:1;"/>
<path d="M723.639 644.928C723.639 647.166 721.798 649.01 719.552 649.01C717.311 649.01 715.466 647.166 715.466 644.928C715.466 642.687 717.311 640.846 719.552 640.846C721.798 640.846 723.639 642.687 723.639 644.928Z" fill="white" style="fill:white;fill-opacity:1;"/>
<path d="M690.948 667.127C690.948 668.946 689.449 670.444 687.627 670.444C685.805 670.444 684.306 668.946 684.306 667.127C684.306 665.307 685.805 663.81 687.627 663.81C689.449 663.81 690.948 665.307 690.948 667.127Z" fill="white" style="fill:white;fill-opacity:1;"/>
<path d="M723.129 673.507C723.129 675.745 721.283 677.589 719.042 677.589C716.801 677.589 714.956 675.745 714.956 673.507C714.956 671.266 716.801 669.424 719.042 669.424C721.283 669.424 723.129 671.266 723.129 673.507Z" fill="white" style="fill:white;fill-opacity:1;"/>
<path d="M690.948 713.056C690.948 714.877 689.449 716.373 687.627 716.373C685.805 716.373 684.306 714.877 684.306 713.056C684.306 711.236 685.805 709.739 687.627 709.739C689.449 709.739 690.948 711.236 690.948 713.056Z" fill="white" style="fill:white;fill-opacity:1;"/>
<path d="M774.214 622.728C774.214 624.547 772.711 626.045 770.893 626.045C769.071 626.045 767.572 624.547 767.572 622.728C767.572 620.908 769.071 619.411 770.893 619.411C772.711 619.411 774.214 620.908 774.214 622.728Z" fill="white" style="fill:white;fill-opacity:1;"/>
<path d="M782.387 642.887C782.387 645.125 780.542 646.969 778.3 646.969C776.055 646.969 774.214 645.125 774.214 642.887C774.214 640.646 776.055 638.803 778.3 638.803C780.542 638.803 782.387 640.646 782.387 642.887Z" fill="white" style="fill:white;fill-opacity:1;"/>
<path d="M839.6 666.871C839.6 669.111 837.755 670.955 835.514 670.955C833.268 670.955 831.427 669.111 831.427 666.871C831.427 664.632 833.268 662.789 835.514 662.789C837.755 662.789 839.6 664.632 839.6 666.871Z" fill="white" style="fill:white;fill-opacity:1;"/>
<path d="M781.362 709.483C781.362 711.304 779.863 712.802 778.041 712.802C776.224 712.802 774.72 711.304 774.72 709.483C774.72 707.665 776.224 706.166 778.041 706.166C779.863 706.166 781.362 707.665 781.362 709.483Z" fill="white" style="fill:white;fill-opacity:1;"/>
<path d="M818.143 674.781C818.143 676.602 816.645 678.1 814.822 678.1C813.005 678.1 811.501 676.602 811.501 674.781C811.501 672.962 813.005 671.464 814.822 671.464C816.645 671.464 818.143 672.962 818.143 674.781Z" fill="white" style="fill:white;fill-opacity:1;"/>
<path d="M811.502 728.367C811.502 730.186 810.003 731.683 808.181 731.683C806.363 731.683 804.86 730.186 804.86 728.367C804.86 726.547 806.363 725.048 808.181 725.048C810.003 725.048 811.502 726.547 811.502 728.367Z" fill="white" style="fill:white;fill-opacity:1;"/>
<path d="M826.954 639.313C826.954 642.113 824.649 644.417 821.847 644.417C819.045 644.417 816.74 642.113 816.74 639.313C816.74 636.515 819.045 634.21 821.847 634.21C824.649 634.21 826.954 636.515 826.954 639.313Z" fill="white" style="fill:white;fill-opacity:1;"/>
<path d="M791.197 728.111C791.197 730.91 788.892 733.215 786.091 733.215C783.289 733.215 780.979 730.91 780.979 728.111C780.979 725.312 783.289 723.007 786.091 723.007C788.892 723.007 791.197 725.312 791.197 728.111Z" fill="white" style="fill:white;fill-opacity:1;"/>
<path d="M410.118 306.579C410.118 309.376 407.811 311.681 405.008 311.681C402.206 311.681 399.899 309.376 399.899 306.579C399.899 303.777 402.206 301.477 405.008 301.477C407.811 301.477 410.118 303.777 410.118 306.579Z" fill="white" style="fill:white;fill-opacity:1;"/>
<path d="M600.147 183.078C600.147 185.879 597.841 188.18 595.04 188.18C592.238 188.18 589.928 185.879 589.928 183.078C589.928 180.281 592.238 177.975 595.04 177.975C597.841 177.975 600.147 180.281 600.147 183.078Z" fill="white" style="fill:white;fill-opacity:1;"/>
<path d="M369.249 809.764C369.249 812.563 366.945 814.867 364.142 814.867C361.339 814.867 359.033 812.563 359.033 809.764C359.033 806.965 361.339 804.66 364.142 804.66C366.945 804.66 369.249 806.965 369.249 809.764Z" fill="white" style="fill:white;fill-opacity:1;"/>
<path d="M401.814 305.235C402.387 303.112 404.108 301.454 406.268 300.971L407.459 292.024L409.215 301.057C411.311 301.654 412.936 303.367 413.406 305.513L422.464 306.797L413.324 308.405C412.748 310.469 411.089 312.082 408.996 312.592L407.459 321.799L405.905 312.528C403.869 311.936 402.284 310.287 401.778 308.219L393.039 306.797L401.814 305.235Z" fill="white" style="fill:white;fill-opacity:1;"/>
<path d="M818.44 637.263C819.009 635.137 820.731 633.482 822.89 632.998L824.084 624.052L825.838 633.083C827.933 633.681 829.56 635.395 830.029 637.541L839.085 638.822L829.947 640.432C829.373 642.497 827.71 644.111 825.619 644.621L824.084 653.827L822.531 644.554C820.494 643.963 818.909 642.315 818.399 640.244L809.661 638.822L818.44 637.263Z" fill="white" style="fill:white;fill-opacity:1;"/>
<path d="M357.657 809.488C358.232 807.362 359.951 805.705 362.113 805.223L363.302 796.277L365.06 805.308C367.155 805.904 368.779 807.618 369.249 809.764L378.309 811.047L369.169 812.658C368.593 814.722 366.932 816.334 364.841 816.845L363.302 826.052L361.75 816.779C359.715 816.186 358.129 814.538 357.622 812.469L348.884 811.047L357.657 809.488Z" fill="white" style="fill:white;fill-opacity:1;"/>
<path d="M781.635 727.273C782.209 725.147 783.927 723.492 786.091 723.008L787.28 714.062L789.038 723.093C791.129 723.689 792.755 725.405 793.225 727.549L802.281 728.832L793.147 730.442C792.569 732.507 790.91 734.121 788.815 734.631L787.28 743.837L785.726 734.564C783.69 733.971 782.105 732.325 781.599 730.254L772.861 728.832L781.635 727.273Z" fill="white" style="fill:white;fill-opacity:1;"/>
<path d="M588.553 182.799C589.127 180.676 590.849 179.018 593.008 178.535L594.201 169.593L595.955 178.622C598.051 179.219 599.677 180.932 600.146 183.077L609.203 184.362L600.064 185.97C599.486 188.034 597.828 189.646 595.737 190.157L594.201 199.363L592.648 190.093C590.612 189.501 589.026 187.851 588.521 185.779L579.779 184.362L588.553 182.799Z" fill="white" style="fill:white;fill-opacity:1;"/>
</svg>
