<svg width="1024" height="1024" viewBox="0 0 1024 1024" fill="none" xmlns="http://www.w3.org/2000/svg">
<path d="M564.582 732.462C738.263 803.908 708.638 623.249 615.664 484.44C563.056 405.894 494.45 340.467 451.178 308.884C307.123 203.76 219.259 268.061 320.405 474.235C353.169 541.025 395.249 586.097 428.122 628.579C453.221 661.014 502.117 677.258 484.892 692.656C465.48 710.008 418.484 633.457 418.484 633.457C383.748 591.61 350.671 546.924 316.577 485.648C238.67 345.629 249.909 202.739 390.898 264.996C510.567 317.84 624.862 466.069 670.827 571.334C692.129 620.112 749.506 812.072 565.603 734.503" fill="white" style="fill:white;fill-opacity:1;"/>
<path d="M695.632 510.655C703.404 483.71 710.556 458.935 710.556 458.935L695.077 443.364H769.642L823.101 577.985L840.918 595.874H743.848L761.67 577.985L755.337 561.556H701.764L696.252 580.343L709.03 595.874H658.386L676.203 577.985C676.203 577.985 686.362 542.779 695.632 510.655L716.356 510.657C712.401 524.323 708.443 537.992 708.443 537.992H745.844L724.273 483.323C724.273 483.323 720.314 496.99 716.356 510.657L695.632 510.655Z" fill="white" style="fill:white;fill-opacity:1;"/>
<path d="M564.583 732.462C738.263 803.908 708.638 623.249 615.664 484.44C563.057 405.894 498.176 343.588 451.178 308.884C396.285 268.353 390.898 264.996 390.898 264.996C513.497 323.175 624.862 466.069 670.827 571.334C692.129 620.112 749.506 812.072 565.603 734.503" fill="white" style="fill:white;fill-opacity:1;"/>
<mask id="mask0_1_12" style="mask-type:luminance" maskUnits="userSpaceOnUse" x="524" y="540" width="57" height="33">
<path d="M580.481 548.188C574.591 545.85 567.808 543.578 560.783 540.847C548.797 548.254 536.689 555.786 524.32 563.613C530.024 567.572 536.306 570.438 542.588 572.468C555.184 564.412 567.812 556.317 580.481 548.188Z" fill="white" style="fill:white;fill-opacity:1;"/>
</mask>
<g mask="url(#mask0_1_12)">
<path d="M585.037 571.528L578.768 577.023H519.765V540.294L524.325 536.292H585.037V571.528Z" fill="#918F90" style="fill:#918F90;fill:color(display-p3 0.5686 0.5608 0.5647);fill-opacity:1;"/>
</g>
<mask id="mask1_1_12" style="mask-type:luminance" maskUnits="userSpaceOnUse" x="616" y="499" width="19" height="17">
<path d="M626.028 499.936C622.812 502.02 619.673 504.003 616.493 506.033C621.122 508.387 626.215 511.567 630.889 515.603C631.982 514.89 633.08 514.189 634.169 513.475C631.527 508.936 628.816 504.422 626.028 499.936Z" fill="white" style="fill:white;fill-opacity:1;"/>
</mask>
<g mask="url(#mask1_1_12)">
<path d="M638.724 501.63L633.249 495.381H637.841L638.724 496.392V501.63Z" fill="#8F8D8E" style="fill:#8F8D8E;fill:color(display-p3 0.5608 0.5529 0.5569);fill-opacity:1;"/>
<path d="M638.724 506.868L628.661 495.381H633.249L638.724 501.631V506.868Z" fill="#908E8F" style="fill:#908E8F;fill:color(display-p3 0.5647 0.5569 0.5608);fill-opacity:1;"/>
<path d="M638.724 512.105L624.074 495.381H628.661L638.724 506.868V512.105Z" fill="#918F90" style="fill:#918F90;fill:color(display-p3 0.5686 0.5608 0.5647);fill-opacity:1;"/>
<path d="M624.074 495.381L638.725 512.103V520.161H611.938V495.381H624.074Z" fill="#918F90" style="fill:#918F90;fill:color(display-p3 0.5686 0.5608 0.5647);fill-opacity:1;"/>
</g>
<mask id="mask2_1_12" style="mask-type:luminance" maskUnits="userSpaceOnUse" x="631" y="149" width="371" height="362">
<path d="M1001.66 149.458L901.557 279.883C776.594 395.002 698.461 452.694 631.208 496.577C634.014 501.097 636.743 505.592 639.389 510.066C801.699 403.576 954.798 288.466 1001.66 149.458Z" fill="white" style="fill:white;fill-opacity:1;"/>
</mask>
<g mask="url(#mask2_1_12)">
<path d="M1006.21 274.28L917.347 343.957L842.317 248.268L974.15 144.902H1006.21V274.28Z" fill="#231F20" style="fill:#231F20;fill:color(display-p3 0.1373 0.1216 0.1255);fill-opacity:1;"/>
<path d="M917.347 343.953L915.579 345.337L840.554 249.653L842.317 248.268L917.347 343.953Z" fill="#231F20" style="fill:#231F20;fill:color(display-p3 0.1373 0.1216 0.1255);fill-opacity:1;"/>
<path d="M915.579 345.337L913.812 346.722L838.786 251.037L840.554 249.652L915.579 345.337Z" fill="#242021" style="fill:#242021;fill:color(display-p3 0.1412 0.1255 0.1294);fill-opacity:1;"/>
<path d="M913.811 346.722L912.044 348.107L837.018 252.422L838.786 251.037L913.811 346.722Z" fill="#252122" style="fill:#252122;fill:color(display-p3 0.1451 0.1294 0.1333);fill-opacity:1;"/>
<path d="M912.044 348.107L910.277 349.497L835.256 253.807L837.019 252.422L912.044 348.107Z" fill="#262223" style="fill:#262223;fill:color(display-p3 0.1490 0.1333 0.1373);fill-opacity:1;"/>
<path d="M910.277 349.497L908.514 350.877L833.488 255.192L835.256 253.807L910.277 349.497Z" fill="#262323" style="fill:#262323;fill:color(display-p3 0.1490 0.1373 0.1373);fill-opacity:1;"/>
<path d="M908.514 350.877L906.746 352.262L831.721 256.577L833.488 255.192L908.514 350.877Z" fill="#272324" style="fill:#272324;fill:color(display-p3 0.1529 0.1373 0.1412);fill-opacity:1;"/>
<path d="M906.746 352.262L904.978 353.652L829.953 257.962L831.721 256.577L906.746 352.262Z" fill="#282425" style="fill:#282425;fill:color(display-p3 0.1569 0.1412 0.1451);fill-opacity:1;"/>
<path d="M904.978 353.651L903.211 355.036L828.185 259.346L829.953 257.962L904.978 353.651Z" fill="#292526" style="fill:#292526;fill:color(display-p3 0.1608 0.1451 0.1490);fill-opacity:1;"/>
<path d="M903.211 355.036L901.448 356.417L826.423 260.732L828.186 259.347L903.211 355.036Z" fill="#2A2627" style="fill:#2A2627;fill:color(display-p3 0.1647 0.1490 0.1529);fill-opacity:1;"/>
<path d="M901.448 356.417L899.68 357.806L824.655 262.117L826.422 260.732L901.448 356.417Z" fill="#2B2728" style="fill:#2B2728;fill:color(display-p3 0.1686 0.1529 0.1569);fill-opacity:1;"/>
<path d="M899.68 357.806L897.913 359.191L822.887 263.502L824.655 262.117L899.68 357.806Z" fill="#2C2829" style="fill:#2C2829;fill:color(display-p3 0.1725 0.1569 0.1608);fill-opacity:1;"/>
<path d="M897.913 359.191L896.145 360.576L821.12 264.886L822.887 263.501L897.913 359.191Z" fill="#2C292A" style="fill:#2C292A;fill:color(display-p3 0.1725 0.1608 0.1647);fill-opacity:1;"/>
<path d="M896.145 360.576L894.382 361.956L819.357 266.271L821.12 264.886L896.145 360.576Z" fill="#2D2A2A" style="fill:#2D2A2A;fill:color(display-p3 0.1765 0.1647 0.1647);fill-opacity:1;"/>
<path d="M894.382 361.956L892.615 363.346L817.589 267.656L819.357 266.271L894.382 361.956Z" fill="#2E2A2B" style="fill:#2E2A2B;fill:color(display-p3 0.1804 0.1647 0.1686);fill-opacity:1;"/>
<path d="M892.615 363.345L890.847 364.73L815.822 269.041L817.589 267.656L892.615 363.345Z" fill="#2F2B2C" style="fill:#2F2B2C;fill:color(display-p3 0.1843 0.1686 0.1725);fill-opacity:1;"/>
<path d="M890.847 364.73L889.079 366.115L814.059 270.426L815.822 269.041L890.847 364.73Z" fill="#302C2D" style="fill:#302C2D;fill:color(display-p3 0.1882 0.1725 0.1765);fill-opacity:1;"/>
<path d="M889.08 366.116L887.317 367.496L812.291 271.811L814.059 270.426L889.08 366.116Z" fill="#312D2E" style="fill:#312D2E;fill:color(display-p3 0.1922 0.1765 0.1804);fill-opacity:1;"/>
<path d="M887.317 367.495L885.549 368.885L810.524 273.195L812.291 271.811L887.317 367.495Z" fill="#322E2F" style="fill:#322E2F;fill:color(display-p3 0.1961 0.1804 0.1843);fill-opacity:1;"/>
<path d="M885.549 368.885L883.781 370.27L808.756 274.58L810.523 273.195L885.549 368.885Z" fill="#322F30" style="fill:#322F30;fill:color(display-p3 0.1961 0.1843 0.1882);fill-opacity:1;"/>
<path d="M883.782 370.27L882.014 371.655L806.989 275.966L808.756 274.581L883.782 370.27Z" fill="#333031" style="fill:#333031;fill:color(display-p3 0.2000 0.1882 0.1922);fill-opacity:1;"/>
<path d="M882.014 371.655L880.251 373.04L805.225 277.351L806.988 275.966L882.014 371.655Z" fill="#343131" style="fill:#343131;fill:color(display-p3 0.2039 0.1922 0.1922);fill-opacity:1;"/>
<path d="M880.251 373.04L878.483 374.425L803.458 278.735L805.225 277.351L880.251 373.04Z" fill="#353132" style="fill:#353132;fill:color(display-p3 0.2078 0.1922 0.1961);fill-opacity:1;"/>
<path d="M878.483 374.425L876.716 375.81L801.69 280.12L803.458 278.735L878.483 374.425Z" fill="#363233" style="fill:#363233;fill:color(display-p3 0.2118 0.1961 0.2000);fill-opacity:1;"/>
<path d="M876.716 375.81L874.948 377.195L799.927 281.505L801.69 280.12L876.716 375.81Z" fill="#373334" style="fill:#373334;fill:color(display-p3 0.2157 0.2000 0.2039);fill-opacity:1;"/>
<path d="M874.948 377.195L873.181 378.579L798.16 282.89L799.928 281.505L874.948 377.195Z" fill="#383435" style="fill:#383435;fill:color(display-p3 0.2196 0.2039 0.2078);fill-opacity:1;"/>
<path d="M873.181 378.579L871.418 379.964L796.392 284.279L798.16 282.89L873.181 378.579Z" fill="#383536" style="fill:#383536;fill:color(display-p3 0.2196 0.2078 0.2118);fill-opacity:1;"/>
<path d="M871.417 379.964L869.65 381.349L794.625 285.66L796.392 284.279L871.417 379.964Z" fill="#393637" style="fill:#393637;fill:color(display-p3 0.2235 0.2118 0.2157);fill-opacity:1;"/>
<path d="M869.65 381.349L867.883 382.734L792.857 287.045L794.625 285.66L869.65 381.349Z" fill="#3A3738" style="fill:#3A3738;fill:color(display-p3 0.2275 0.2157 0.2196);fill-opacity:1;"/>
<path d="M867.883 382.734L866.12 384.119L791.094 288.434L792.857 287.044L867.883 382.734Z" fill="#3B3838" style="fill:#3B3838;fill:color(display-p3 0.2314 0.2196 0.2196);fill-opacity:1;"/>
<path d="M866.119 384.119L864.352 385.504L789.326 289.819L791.094 288.434L866.119 384.119Z" fill="#3C3839" style="fill:#3C3839;fill:color(display-p3 0.2353 0.2196 0.2235);fill-opacity:1;"/>
<path d="M864.352 385.504L862.585 386.888L787.559 291.199L789.327 289.819L864.352 385.504Z" fill="#3D393A" style="fill:#3D393A;fill:color(display-p3 0.2392 0.2235 0.2275);fill-opacity:1;"/>
<path d="M862.585 386.888L860.817 388.273L785.792 292.584L787.559 291.199L862.585 386.888Z" fill="#3E3A3B" style="fill:#3E3A3B;fill:color(display-p3 0.2431 0.2275 0.2314);fill-opacity:1;"/>
<path d="M860.817 388.274L859.049 389.659L784.028 293.969L785.791 292.584L860.817 388.274Z" fill="#3F3B3C" style="fill:#3F3B3C;fill:color(display-p3 0.2471 0.2314 0.2353);fill-opacity:1;"/>
<path d="M859.049 389.659L857.286 391.044L782.261 295.359L784.029 293.969L859.049 389.659Z" fill="#403C3D" style="fill:#403C3D;fill:color(display-p3 0.2510 0.2353 0.2392);fill-opacity:1;"/>
<path d="M857.286 391.044L855.519 392.428L780.493 296.739L782.261 295.359L857.286 391.044Z" fill="#413D3E" style="fill:#413D3E;fill:color(display-p3 0.2549 0.2392 0.2431);fill-opacity:1;"/>
<path d="M855.519 392.428L853.751 393.813L778.726 298.124L780.493 296.739L855.519 392.428Z" fill="#423E3F" style="fill:#423E3F;fill:color(display-p3 0.2588 0.2431 0.2471);fill-opacity:1;"/>
<path d="M853.751 393.813L851.988 395.198L776.963 299.513L778.726 298.124L853.751 393.813Z" fill="#423F40" style="fill:#423F40;fill:color(display-p3 0.2588 0.2471 0.2510);fill-opacity:1;"/>
<path d="M851.988 395.198L850.221 396.583L775.195 300.898L776.963 299.513L851.988 395.198Z" fill="#434041" style="fill:#434041;fill:color(display-p3 0.2627 0.2510 0.2549);fill-opacity:1;"/>
<path d="M850.221 396.583L848.453 397.968L773.428 302.278L775.195 300.898L850.221 396.583Z" fill="#444142" style="fill:#444142;fill:color(display-p3 0.2667 0.2549 0.2588);fill-opacity:1;"/>
<path d="M848.453 397.968L846.686 399.353L771.66 303.668L773.428 302.278L848.453 397.968Z" fill="#454242" style="fill:#454242;fill:color(display-p3 0.2706 0.2588 0.2588);fill-opacity:1;"/>
<path d="M846.685 399.353L844.922 400.737L769.897 305.053L771.66 303.668L846.685 399.353Z" fill="#464243" style="fill:#464243;fill:color(display-p3 0.2745 0.2588 0.2627);fill-opacity:1;"/>
<path d="M844.923 400.737L843.155 402.122L768.13 306.437L769.897 305.053L844.923 400.737Z" fill="#474344" style="fill:#474344;fill:color(display-p3 0.2784 0.2627 0.2667);fill-opacity:1;"/>
<path d="M843.155 402.122L841.388 403.507L766.362 307.822L768.13 306.437L843.155 402.122Z" fill="#484445" style="fill:#484445;fill:color(display-p3 0.2824 0.2667 0.2706);fill-opacity:1;"/>
<path d="M841.387 403.508L839.62 404.893L764.594 309.208L766.362 307.823L841.387 403.508Z" fill="#484546" style="fill:#484546;fill:color(display-p3 0.2824 0.2706 0.2745);fill-opacity:1;"/>
<path d="M839.62 404.892L837.852 406.277L762.832 310.592L764.595 309.208L839.62 404.892Z" fill="#494647" style="fill:#494647;fill:color(display-p3 0.2863 0.2745 0.2784);fill-opacity:1;"/>
<path d="M837.852 406.277L836.089 407.662L761.064 311.977L762.831 310.592L837.852 406.277Z" fill="#4A4748" style="fill:#4A4748;fill:color(display-p3 0.2902 0.2784 0.2824);fill-opacity:1;"/>
<path d="M836.09 407.662L834.322 409.047L759.297 313.362L761.064 311.977L836.09 407.662Z" fill="#4B4849" style="fill:#4B4849;fill:color(display-p3 0.2941 0.2824 0.2863);fill-opacity:1;"/>
<path d="M834.322 409.047L832.554 410.432L757.529 314.747L759.296 313.362L834.322 409.047Z" fill="#4C4949" style="fill:#4C4949;fill:color(display-p3 0.2980 0.2863 0.2863);fill-opacity:1;"/>
<path d="M832.554 410.432L830.791 411.817L755.761 316.132L757.529 314.747L832.554 410.432Z" fill="#4D494A" style="fill:#4D494A;fill:color(display-p3 0.3020 0.2863 0.2902);fill-opacity:1;"/>
<path d="M830.791 411.817L829.023 413.202L753.998 317.517L755.761 316.132L830.791 411.817Z" fill="#4E4A4B" style="fill:#4E4A4B;fill:color(display-p3 0.3059 0.2902 0.2941);fill-opacity:1;"/>
<path d="M829.024 413.202L827.256 414.591L752.231 318.902L753.998 317.517L829.024 413.202Z" fill="#4E4B4C" style="fill:#4E4B4C;fill:color(display-p3 0.3059 0.2941 0.2980);fill-opacity:1;"/>
<path d="M827.256 414.591L825.488 415.976L750.468 320.286L752.231 318.901L827.256 414.591Z" fill="#4F4C4D" style="fill:#4F4C4D;fill:color(display-p3 0.3098 0.2980 0.3020);fill-opacity:1;"/>
<path d="M825.489 415.976L823.721 417.356L748.7 321.671L750.468 320.286L825.489 415.976Z" fill="#504D4E" style="fill:#504D4E;fill:color(display-p3 0.3137 0.3020 0.3059);fill-opacity:1;"/>
<path d="M823.721 417.356L821.958 418.741L746.932 323.056L748.7 321.671L823.721 417.356Z" fill="#514E4F" style="fill:#514E4F;fill:color(display-p3 0.3176 0.3059 0.3098);fill-opacity:1;"/>
<path d="M821.958 418.741L820.19 420.13L745.165 324.441L746.932 323.056L821.958 418.741Z" fill="#524F4F" style="fill:#524F4F;fill:color(display-p3 0.3216 0.3098 0.3098);fill-opacity:1;"/>
<path d="M820.191 420.131L818.423 421.516L743.398 325.826L745.165 324.441L820.191 420.131Z" fill="#535050" style="fill:#535050;fill:color(display-p3 0.3255 0.3137 0.3137);fill-opacity:1;"/>
<path d="M818.423 421.515L816.66 422.896L741.63 327.211L743.397 325.826L818.423 421.515Z" fill="#545051" style="fill:#545051;fill:color(display-p3 0.3294 0.3137 0.3176);fill-opacity:1;"/>
<path d="M816.66 422.896L814.892 424.285L739.867 328.596L741.63 327.211L816.66 422.896Z" fill="#545152" style="fill:#545152;fill:color(display-p3 0.3294 0.3176 0.3216);fill-opacity:1;"/>
<path d="M814.892 424.285L813.125 425.67L738.099 329.98L739.867 328.596L814.892 424.285Z" fill="#555253" style="fill:#555253;fill:color(display-p3 0.3333 0.3216 0.3255);fill-opacity:1;"/>
<path d="M813.125 425.67L811.357 427.055L736.332 331.366L738.099 329.981L813.125 425.67Z" fill="#565354" style="fill:#565354;fill:color(display-p3 0.3373 0.3255 0.3294);fill-opacity:1;"/>
<path d="M811.357 427.055L809.59 428.44L734.569 332.751L736.332 331.366L811.357 427.055Z" fill="#575455" style="fill:#575455;fill:color(display-p3 0.3412 0.3294 0.3333);fill-opacity:1;"/>
<path d="M809.59 428.44L807.827 429.825L732.801 334.135L734.569 332.751L809.59 428.44Z" fill="#585556" style="fill:#585556;fill:color(display-p3 0.3451 0.3333 0.3373);fill-opacity:1;"/>
<path d="M807.827 429.825L806.059 431.21L731.034 335.52L732.801 334.135L807.827 429.825Z" fill="#595656" style="fill:#595656;fill:color(display-p3 0.3490 0.3373 0.3373);fill-opacity:1;"/>
<path d="M806.059 431.21L804.292 432.595L729.266 336.905L731.034 335.52L806.059 431.21Z" fill="#5A5757" style="fill:#5A5757;fill:color(display-p3 0.3529 0.3412 0.3412);fill-opacity:1;"/>
<path d="M804.291 432.595L802.528 433.979L727.503 338.29L729.266 336.905L804.291 432.595Z" fill="#5A5758" style="fill:#5A5758;fill:color(display-p3 0.3529 0.3412 0.3451);fill-opacity:1;"/>
<path d="M802.528 433.979L800.761 435.364L725.735 339.675L727.503 338.29L802.528 433.979Z" fill="#5B5859" style="fill:#5B5859;fill:color(display-p3 0.3569 0.3451 0.3490);fill-opacity:1;"/>
<path d="M800.761 435.364L798.994 436.749L723.968 341.06L725.736 339.675L800.761 435.364Z" fill="#5C595A" style="fill:#5C595A;fill:color(display-p3 0.3608 0.3490 0.3529);fill-opacity:1;"/>
<path d="M798.993 436.75L797.226 438.134L722.2 342.445L723.968 341.06L798.993 436.75Z" fill="#5D5A5B" style="fill:#5D5A5B;fill:color(display-p3 0.3647 0.3529 0.3569);fill-opacity:1;"/>
<path d="M797.226 438.134L795.459 439.519L720.438 343.829L722.201 342.445L797.226 438.134Z" fill="#5E5B5C" style="fill:#5E5B5C;fill:color(display-p3 0.3686 0.3569 0.3608);fill-opacity:1;"/>
<path d="M795.458 439.519L793.695 440.904L718.67 345.214L720.437 343.829L795.458 439.519Z" fill="#5F5C5D" style="fill:#5F5C5D;fill:color(display-p3 0.3725 0.3608 0.3647);fill-opacity:1;"/>
<path d="M793.695 440.904L791.928 442.289L716.902 346.6L718.67 345.215L793.695 440.904Z" fill="#605D5D" style="fill:#605D5D;fill:color(display-p3 0.3765 0.3647 0.3647);fill-opacity:1;"/>
<path d="M791.928 442.289L790.16 443.674L715.135 347.984L716.903 346.6L791.928 442.289Z" fill="#605E5E" style="fill:#605E5E;fill:color(display-p3 0.3765 0.3686 0.3686);fill-opacity:1;"/>
<path d="M790.16 443.674L788.397 445.059L713.372 349.369L715.135 347.984L790.16 443.674Z" fill="#615E5F" style="fill:#615E5F;fill:color(display-p3 0.3804 0.3686 0.3725);fill-opacity:1;"/>
<path d="M788.397 445.059L786.63 446.444L711.604 350.754L713.372 349.369L788.397 445.059Z" fill="#625F60" style="fill:#625F60;fill:color(display-p3 0.3843 0.3725 0.3765);fill-opacity:1;"/>
<path d="M786.63 446.444L784.862 447.828L709.837 352.139L711.604 350.754L786.63 446.444Z" fill="#636061" style="fill:#636061;fill:color(display-p3 0.3882 0.3765 0.3804);fill-opacity:1;"/>
<path d="M784.862 447.828L783.095 449.213L708.069 353.524L709.837 352.139L784.862 447.828Z" fill="#646162" style="fill:#646162;fill:color(display-p3 0.3922 0.3804 0.3843);fill-opacity:1;"/>
<path d="M783.094 449.213L781.331 450.598L706.306 354.913L708.069 353.524L783.094 449.213Z" fill="#656263" style="fill:#656263;fill:color(display-p3 0.3961 0.3843 0.3882);fill-opacity:1;"/>
<path d="M781.332 450.598L779.564 451.983L704.539 356.298L706.306 354.913L781.332 450.598Z" fill="#666364" style="fill:#666364;fill:color(display-p3 0.4000 0.3882 0.3922);fill-opacity:1;"/>
<path d="M779.564 451.983L777.796 453.368L702.771 357.678L704.539 356.298L779.564 451.983Z" fill="#666464" style="fill:#666464;fill:color(display-p3 0.4000 0.3922 0.3922);fill-opacity:1;"/>
<path d="M777.797 453.368L776.029 454.753L701.008 359.068L702.771 357.678L777.797 453.368Z" fill="#676565" style="fill:#676565;fill:color(display-p3 0.4039 0.3961 0.3961);fill-opacity:1;"/>
<path d="M776.029 454.753L774.261 456.138L699.24 360.453L701.008 359.068L776.029 454.753Z" fill="#686566" style="fill:#686566;fill:color(display-p3 0.4078 0.3961 0.4000);fill-opacity:1;"/>
<path d="M774.261 456.137L772.498 457.522L697.473 361.837L699.24 360.453L774.261 456.137Z" fill="#696667" style="fill:#696667;fill:color(display-p3 0.4118 0.4000 0.4039);fill-opacity:1;"/>
<path d="M772.499 457.522L770.731 458.907L695.706 363.218L697.473 361.837L772.499 457.522Z" fill="#6A6768" style="fill:#6A6768;fill:color(display-p3 0.4157 0.4039 0.4078);fill-opacity:1;"/>
<path d="M770.731 458.908L768.963 460.293L693.938 364.608L695.705 363.218L770.731 458.908Z" fill="#6B6869" style="fill:#6B6869;fill:color(display-p3 0.4196 0.4078 0.4118);fill-opacity:1;"/>
<path d="M768.963 460.293L767.2 461.677L692.17 365.993L693.938 364.608L768.963 460.293Z" fill="#6C696A" style="fill:#6C696A;fill:color(display-p3 0.4235 0.4118 0.4157);fill-opacity:1;"/>
<path d="M767.2 461.677L765.433 463.062L690.407 367.377L692.17 365.993L767.2 461.677Z" fill="#6C6A6A" style="fill:#6C6A6A;fill:color(display-p3 0.4235 0.4157 0.4157);fill-opacity:1;"/>
<path d="M765.433 463.062L763.665 464.447L688.64 368.762L690.407 367.377L765.433 463.062Z" fill="#6D6B6B" style="fill:#6D6B6B;fill:color(display-p3 0.4275 0.4196 0.4196);fill-opacity:1;"/>
<path d="M763.665 464.447L761.897 465.832L686.872 370.147L688.64 368.762L763.665 464.447Z" fill="#6E6C6C" style="fill:#6E6C6C;fill:color(display-p3 0.4314 0.4235 0.4235);fill-opacity:1;"/>
<path d="M761.898 465.832L760.13 467.217L685.109 371.532L686.872 370.147L761.898 465.832Z" fill="#6F6C6D" style="fill:#6F6C6D;fill:color(display-p3 0.4353 0.4235 0.4275);fill-opacity:1;"/>
<path d="M760.13 467.217L758.367 468.602L683.342 372.917L685.109 371.532L760.13 467.217Z" fill="#706D6E" style="fill:#706D6E;fill:color(display-p3 0.4392 0.4275 0.4314);fill-opacity:1;"/>
<path d="M758.367 468.602L756.599 469.991L681.574 374.302L683.341 372.917L758.367 468.602Z" fill="#716E6F" style="fill:#716E6F;fill:color(display-p3 0.4431 0.4314 0.4353);fill-opacity:1;"/>
<path d="M756.6 469.991L754.832 471.371L679.807 375.686L681.574 374.302L756.6 469.991Z" fill="#726F70" style="fill:#726F70;fill:color(display-p3 0.4471 0.4353 0.4392);fill-opacity:1;"/>
<path d="M754.832 471.371L753.064 472.756L678.039 377.071L679.806 375.686L754.832 471.371Z" fill="#727071" style="fill:#727071;fill:color(display-p3 0.4471 0.4392 0.4431);fill-opacity:1;"/>
<path d="M753.065 472.756L751.302 474.143L676.276 378.456L678.039 377.071L753.065 472.756Z" fill="#737171" style="fill:#737171;fill:color(display-p3 0.4510 0.4431 0.4431);fill-opacity:1;"/>
<path d="M751.301 474.143L749.534 475.529L674.508 379.841L676.276 378.456L751.301 474.143Z" fill="#747272" style="fill:#747272;fill:color(display-p3 0.4549 0.4471 0.4471);fill-opacity:1;"/>
<path d="M749.534 475.529L747.766 476.913L672.741 381.226L674.508 379.841L749.534 475.529Z" fill="#757373" style="fill:#757373;fill:color(display-p3 0.4588 0.4510 0.4510);fill-opacity:1;"/>
<path d="M747.766 476.913L745.999 478.298L670.978 382.611L672.741 381.226L747.766 476.913Z" fill="#767374" style="fill:#767374;fill:color(display-p3 0.4627 0.4510 0.4549);fill-opacity:1;"/>
<path d="M745.999 478.298L744.236 479.684L669.21 383.996L670.978 382.611L745.999 478.298Z" fill="#777575" style="fill:#777575;fill:color(display-p3 0.4667 0.4588 0.4588);fill-opacity:1;"/>
<path d="M744.236 479.684L742.468 481.068L667.443 385.381L669.21 383.996L744.236 479.684Z" fill="#787676" style="fill:#787676;fill:color(display-p3 0.4706 0.4627 0.4627);fill-opacity:1;"/>
<path d="M742.468 481.069L740.701 482.453L665.675 386.766L667.443 385.381L742.468 481.069Z" fill="#797777" style="fill:#797777;fill:color(display-p3 0.4745 0.4667 0.4667);fill-opacity:1;"/>
<path d="M740.701 482.453L738.933 483.837L663.912 388.15L665.675 386.765L740.701 482.453Z" fill="#7A7778" style="fill:#7A7778;fill:color(display-p3 0.4784 0.4667 0.4706);fill-opacity:1;"/>
<path d="M738.933 483.837L737.17 485.223L662.144 389.535L663.912 388.15L738.933 483.837Z" fill="#7B7879" style="fill:#7B7879;fill:color(display-p3 0.4824 0.4706 0.4745);fill-opacity:1;"/>
<path d="M737.17 485.224L735.403 486.608L660.377 390.921L662.145 389.536L737.17 485.224Z" fill="#7C797A" style="fill:#7C797A;fill:color(display-p3 0.4863 0.4745 0.4784);fill-opacity:1;"/>
<path d="M735.402 486.608L733.635 487.993L658.609 392.305L660.377 390.921L735.402 486.608Z" fill="#7C7A7B" style="fill:#7C7A7B;fill:color(display-p3 0.4863 0.4784 0.4824);fill-opacity:1;"/>
<path d="M733.635 487.992L731.872 489.378L656.842 393.69L658.61 392.305L733.635 487.992Z" fill="#7D7B7B" style="fill:#7D7B7B;fill:color(display-p3 0.4902 0.4824 0.4824);fill-opacity:1;"/>
<path d="M731.872 489.379L730.104 490.763L655.079 395.075L656.842 393.69L731.872 489.379Z" fill="#7E7C7C" style="fill:#7E7C7C;fill:color(display-p3 0.4941 0.4863 0.4863);fill-opacity:1;"/>
<path d="M730.104 490.763L728.337 492.148L653.311 396.46L655.079 395.075L730.104 490.763Z" fill="#7F7D7D" style="fill:#7F7D7D;fill:color(display-p3 0.4980 0.4902 0.4902);fill-opacity:1;"/>
<path d="M728.337 492.148L726.569 493.532L651.544 397.845L653.312 396.46L728.337 492.148Z" fill="#807E7E" style="fill:#807E7E;fill:color(display-p3 0.5020 0.4941 0.4941);fill-opacity:1;"/>
<path d="M726.569 493.532L724.802 494.918L649.781 399.23L651.544 397.845L726.569 493.532Z" fill="#817E7F" style="fill:#817E7F;fill:color(display-p3 0.5059 0.4941 0.4980);fill-opacity:1;"/>
<path d="M724.801 494.918L723.034 496.303L648.013 400.615L649.781 399.23L724.801 494.918Z" fill="#827F80" style="fill:#827F80;fill:color(display-p3 0.5098 0.4980 0.5020);fill-opacity:1;"/>
<path d="M723.034 496.303L721.271 497.687L646.246 401.999L648.013 400.615L723.034 496.303Z" fill="#828081" style="fill:#828081;fill:color(display-p3 0.5098 0.5020 0.5059);fill-opacity:1;"/>
<path d="M721.271 497.687L719.503 499.073L644.478 403.384L646.246 402L721.271 497.687Z" fill="#838182" style="fill:#838182;fill:color(display-p3 0.5137 0.5059 0.5098);fill-opacity:1;"/>
<path d="M719.503 499.073L717.74 500.458L642.71 404.769L644.478 403.384L719.503 499.073Z" fill="#848282" style="fill:#848282;fill:color(display-p3 0.5176 0.5098 0.5098);fill-opacity:1;"/>
<path d="M717.741 500.458L715.973 501.842L640.948 406.154L642.711 404.769L717.741 500.458Z" fill="#858383" style="fill:#858383;fill:color(display-p3 0.5216 0.5137 0.5137);fill-opacity:1;"/>
<path d="M715.973 501.842L714.205 503.229L639.18 407.539L640.947 406.154L715.973 501.842Z" fill="#868484" style="fill:#868484;fill:color(display-p3 0.5255 0.5176 0.5176);fill-opacity:1;"/>
<path d="M714.206 503.228L712.438 504.613L637.413 408.924L639.18 407.539L714.206 503.228Z" fill="#878585" style="fill:#878585;fill:color(display-p3 0.5294 0.5216 0.5216);fill-opacity:1;"/>
<path d="M712.438 504.613L710.67 505.997L635.649 410.313L637.412 408.924L712.438 504.613Z" fill="#888586" style="fill:#888586;fill:color(display-p3 0.5333 0.5216 0.5255);fill-opacity:1;"/>
<path d="M710.67 505.997L708.903 507.384L633.882 411.694L635.649 410.313L710.67 505.997Z" fill="#888687" style="fill:#888687;fill:color(display-p3 0.5333 0.5255 0.5294);fill-opacity:1;"/>
<path d="M708.903 507.383L707.14 508.768L632.115 413.078L633.882 411.694L708.903 507.383Z" fill="#898788" style="fill:#898788;fill:color(display-p3 0.5373 0.5294 0.5333);fill-opacity:1;"/>
<path d="M707.14 508.768L705.372 510.153L630.347 414.468L632.114 413.078L707.14 508.768Z" fill="#8A8889" style="fill:#8A8889;fill:color(display-p3 0.5412 0.5333 0.5373);fill-opacity:1;"/>
<path d="M705.372 510.153L703.609 511.538L628.579 415.853L630.347 414.468L705.372 510.153Z" fill="#8B8989" style="fill:#8B8989;fill:color(display-p3 0.5451 0.5373 0.5373);fill-opacity:1;"/>
<path d="M703.609 511.537L701.842 512.923L626.816 417.233L628.579 415.853L703.609 511.537Z" fill="#8C8A8A" style="fill:#8C8A8A;fill:color(display-p3 0.5490 0.5412 0.5412);fill-opacity:1;"/>
<path d="M701.842 512.923L700.074 514.308L626.652 420.663V417.365L626.816 417.233L701.842 512.923Z" fill="#8D8B8B" style="fill:#8D8B8B;fill:color(display-p3 0.5529 0.5451 0.5451);fill-opacity:1;"/>
<path d="M700.075 514.308L699.674 514.621H697.469L626.653 424.304V420.664L700.075 514.308Z" fill="#8E8C8C" style="fill:#8E8C8C;fill:color(display-p3 0.5569 0.5490 0.5490);fill-opacity:1;"/>
<path d="M694.618 514.621L626.653 427.939V424.304L697.469 514.621H694.618Z" fill="#8E8C8D" style="fill:#8E8C8D;fill:color(display-p3 0.5569 0.5490 0.5529);fill-opacity:1;"/>
<path d="M691.766 514.621L626.653 431.579V427.939L694.618 514.621H691.766Z" fill="#8F8D8E" style="fill:#8F8D8E;fill:color(display-p3 0.5608 0.5529 0.5569);fill-opacity:1;"/>
<path d="M688.909 514.621L626.653 435.214V431.579L691.766 514.621H688.909Z" fill="#908E8F" style="fill:#908E8F;fill:color(display-p3 0.5647 0.5569 0.5608);fill-opacity:1;"/>
<path d="M686.058 514.621L626.653 438.854V435.214L688.909 514.621H686.058Z" fill="#918F90" style="fill:#918F90;fill:color(display-p3 0.5686 0.5608 0.5647);fill-opacity:1;"/>
<path d="M626.648 438.849L686.057 514.621H626.648V438.849Z" fill="#918F90" style="fill:#918F90;fill:color(display-p3 0.5686 0.5608 0.5647);fill-opacity:1;"/>
</g>
<path d="M639.389 510.066C636.742 505.592 634.013 501.097 631.207 496.577C629.467 497.71 627.75 498.821 626.028 499.937C628.816 504.423 631.526 508.936 634.168 513.475C635.909 512.338 637.653 511.204 639.389 510.066Z" fill="white" style="fill:white;fill-opacity:1;"/>
<path d="M514.708 555.183L515.592 569.142C518.535 567.261 521.414 565.453 524.321 563.613C520.836 561.196 517.515 558.513 514.708 555.183Z" fill="white" style="fill:white;fill-opacity:1;"/>
<path d="M597.815 563.732C597.587 572.058 583.775 578.027 573.037 577.684C567.584 577.511 555.284 576.571 542.588 572.468C533.983 577.97 525.377 583.478 516.84 588.951L517.865 605.134L535.655 592.085C557.275 599.735 583.474 602.94 607.714 595.039C631.809 587.18 657.133 567.019 643.079 531.783C640.505 525.328 635.972 519.99 630.888 515.603C614.124 526.553 597.3 537.397 580.481 548.188C590.677 552.231 598.006 556.484 597.815 563.732Z" fill="white" style="fill:white;fill-opacity:1;"/>
<path d="M524.32 563.613C521.414 565.453 518.535 567.261 515.592 569.142L516.84 588.952C525.377 583.478 533.983 577.971 542.588 572.468C536.306 570.438 530.024 567.572 524.32 563.613Z" fill="#808080" style="fill:#808080;fill:color(display-p3 0.5020 0.5020 0.5020);fill-opacity:1;"/>
<path d="M560.783 540.848C567.808 543.578 574.591 545.85 580.481 548.188C597.3 537.397 614.124 526.553 630.888 515.603C626.214 511.568 621.121 508.388 616.493 506.034C597.555 518.138 579.219 529.454 560.783 540.848Z" fill="#808080" style="fill:#808080;fill:color(display-p3 0.5020 0.5020 0.5020);fill-opacity:1;"/>
<path d="M760.74 336.823C695.719 369.509 635.567 395.234 575.452 418.153C586.709 432.071 597.342 446.243 607.327 460.443C731.639 416.381 847.095 354.813 928.294 253.129C947.022 229.681 987.507 175.238 1000.83 148C954.297 221.536 838.859 297.554 760.74 336.823Z" fill="#808080" style="fill:#808080;fill:color(display-p3 0.5020 0.5020 0.5020);fill-opacity:1;"/>
<path d="M295.885 513.397C172.264 554.224 99.6243 587.168 23 638.203L26.0536 641.052C163.183 559.872 393.664 534.958 600.863 462.693C590.317 448.166 579.343 434.203 568.191 420.919C482.423 453.295 396.333 480.223 295.885 513.397Z" fill="#808080" style="fill:#808080;fill:color(display-p3 0.5020 0.5020 0.5020);fill-opacity:1;"/>
<path d="M568.19 420.919C579.342 434.203 590.317 448.166 600.863 462.693C603.017 461.942 605.177 461.204 607.327 460.443C597.341 446.243 586.709 432.071 575.452 418.154C573.033 419.074 570.609 420.008 568.19 420.919Z" fill="white" style="fill:white;fill-opacity:1;"/>
<path d="M610.434 503.207C601.341 499.483 573.584 488.567 565.831 484.529C556.779 479.814 557.79 464.843 579.57 461.805C599.301 459.053 626.638 474.854 632.497 481.83L630.907 434.344L614.931 445.377C592.408 437.505 566.204 437.801 547.818 446.503C530.703 454.602 512.235 471.704 514.485 496.005C516.74 520.307 535.573 529.713 552.547 537.408C555.28 538.646 558.041 539.782 560.783 540.847C579.22 529.453 597.556 518.137 616.493 506.033C614.334 504.933 612.252 503.951 610.434 503.207Z" fill="white" style="fill:white;fill-opacity:1;"/>
<path d="M353.189 510.655C360.963 483.71 368.114 458.935 368.114 458.935L352.637 443.364H427.199L480.66 577.985L498.477 595.874H401.407L419.227 577.985L412.897 561.556H359.321L353.81 580.343L366.589 595.874H315.944L333.764 577.985C333.764 577.985 343.921 542.779 353.189 510.655L373.917 510.657C369.959 524.323 366.003 537.992 366.003 537.992H403.402L381.83 483.323C381.83 483.323 377.873 496.99 373.917 510.657L353.189 510.655Z" fill="white" style="fill:white;fill-opacity:1;"/>
<mask id="mask3_1_12" style="mask-type:luminance" maskUnits="userSpaceOnUse" x="133" y="569" width="384" height="308">
<path d="M474.674 596.071C398.051 648.126 259.385 730.79 138.83 869.601C147.557 860.66 120.138 889.75 142.916 868.579C229.294 788.288 354.774 693.916 481.161 611.941C492.937 604.301 504.855 596.637 516.84 588.952L515.592 569.142C502.44 577.552 488.901 586.409 474.674 596.071Z" fill="white" style="fill:white;fill-opacity:1;"/>
</mask>
<g mask="url(#mask3_1_12)">
<path d="M521.396 612.293L199.572 894.305H115.585V829.478L417.87 564.588H521.396V612.293Z" fill="#918F90" style="fill:#918F90;fill:color(display-p3 0.5686 0.5608 0.5647);fill-opacity:1;"/>
</g>
<path d="M252.753 538.346C252.753 531.748 252.753 458.935 252.753 458.935L237.279 443.364H288.861L273.386 458.935V577.985L291.206 595.874H223.444L165.06 497.108C165.06 500.878 165.06 577.985 165.06 577.985L180.067 595.874H126.139L143.959 577.985V458.935L128.484 443.364H196.012L252.753 538.346Z" fill="white" style="fill:white;fill-opacity:1;"/>
</svg>
